<mxfile host="Electron" modified="2023-10-28T16:40:19.547Z" agent="Mozilla/5.0 (Windows NT 10.0; Win64; x64) AppleWebKit/537.36 (KHTML, like Gecko) draw.io/22.0.3 Chrome/114.0.5735.289 Electron/25.8.4 Safari/537.36" etag="SuCkuJNlQwqBVoF_neu0" version="22.0.3" type="device">
  <diagram id="XGeabRWGbZz8uiKC7IuR" name="Page-2">
    <mxGraphModel dx="849" dy="511" grid="1" gridSize="10" guides="1" tooltips="1" connect="1" arrows="1" fold="1" page="1" pageScale="1" pageWidth="1100" pageHeight="850" math="0" shadow="0">
      <root>
        <mxCell id="0" />
        <mxCell id="1" parent="0" />
        <mxCell id="_6BsK9LfEwQleu0YL2EX-10" style="edgeStyle=orthogonalEdgeStyle;rounded=0;orthogonalLoop=1;jettySize=auto;html=1;entryX=0;entryY=0.5;entryDx=0;entryDy=0;endArrow=none;endFill=0;" parent="1" source="_6BsK9LfEwQleu0YL2EX-1" target="_6BsK9LfEwQleu0YL2EX-3" edge="1">
          <mxGeometry relative="1" as="geometry" />
        </mxCell>
        <mxCell id="_6BsK9LfEwQleu0YL2EX-9" style="edgeStyle=orthogonalEdgeStyle;rounded=0;orthogonalLoop=1;jettySize=auto;html=1;entryX=1;entryY=0.5;entryDx=0;entryDy=0;endArrow=none;endFill=0;" parent="1" source="_6BsK9LfEwQleu0YL2EX-2" target="_6BsK9LfEwQleu0YL2EX-3" edge="1">
          <mxGeometry relative="1" as="geometry" />
        </mxCell>
        <mxCell id="_6BsK9LfEwQleu0YL2EX-2" value="Certification Committee" style="shape=umlActor;verticalLabelPosition=bottom;verticalAlign=top;html=1;outlineConnect=0;" parent="1" vertex="1">
          <mxGeometry x="670" y="77" width="30" height="60" as="geometry" />
        </mxCell>
        <mxCell id="_6BsK9LfEwQleu0YL2EX-3" value="On Boarding" style="ellipse;whiteSpace=wrap;html=1;" parent="1" vertex="1">
          <mxGeometry x="322" y="67" width="120" height="80" as="geometry" />
        </mxCell>
        <mxCell id="_6BsK9LfEwQleu0YL2EX-6" value="Search Offers" style="ellipse;whiteSpace=wrap;html=1;" parent="1" vertex="1">
          <mxGeometry x="240" y="370" width="139" height="62" as="geometry" />
        </mxCell>
        <mxCell id="_6BsK9LfEwQleu0YL2EX-7" value="Check Participants" style="ellipse;whiteSpace=wrap;html=1;" parent="1" vertex="1">
          <mxGeometry x="430" y="420" width="139" height="80" as="geometry" />
        </mxCell>
        <mxCell id="_6BsK9LfEwQleu0YL2EX-12" value="Read/Manipulate Shared Vocabularies" style="ellipse;whiteSpace=wrap;html=1;" parent="1" vertex="1">
          <mxGeometry x="240" y="480" width="139" height="80" as="geometry" />
        </mxCell>
        <mxCell id="_6BsK9LfEwQleu0YL2EX-15" value="Publish Data offering" style="ellipse;whiteSpace=wrap;html=1;" parent="1" vertex="1">
          <mxGeometry x="470" y="550" width="120" height="80" as="geometry" />
        </mxCell>
        <mxCell id="_6BsK9LfEwQleu0YL2EX-16" value="Subscribe Dataset" style="ellipse;whiteSpace=wrap;html=1;" parent="1" vertex="1">
          <mxGeometry x="350" y="230" width="120" height="80" as="geometry" />
        </mxCell>
        <mxCell id="_6BsK9LfEwQleu0YL2EX-20" value="CTI Consumer" style="shape=umlActor;verticalLabelPosition=bottom;verticalAlign=top;html=1;outlineConnect=0;" parent="1" vertex="1">
          <mxGeometry x="63" y="396" width="30" height="60" as="geometry" />
        </mxCell>
        <mxCell id="_6BsK9LfEwQleu0YL2EX-25" value="" style="edgeStyle=none;orthogonalLoop=1;jettySize=auto;html=1;rounded=0;endArrow=none;endFill=0;" parent="1" source="_6BsK9LfEwQleu0YL2EX-20" target="_6BsK9LfEwQleu0YL2EX-16" edge="1">
          <mxGeometry width="80" relative="1" as="geometry">
            <mxPoint x="170" y="300" as="sourcePoint" />
            <mxPoint x="250" y="300" as="targetPoint" />
            <Array as="points" />
          </mxGeometry>
        </mxCell>
        <mxCell id="_6BsK9LfEwQleu0YL2EX-1" value="Participant (Provider/Consumer)" style="shape=umlActor;verticalLabelPosition=bottom;verticalAlign=top;html=1;outlineConnect=0;labelBackgroundColor=none;spacingTop=-4;" parent="1" vertex="1">
          <mxGeometry x="89" y="77" width="30" height="60" as="geometry" />
        </mxCell>
        <mxCell id="_6BsK9LfEwQleu0YL2EX-26" value="&amp;lt;&amp;lt;extend&amp;gt;&amp;gt;" style="rounded=0;orthogonalLoop=1;jettySize=auto;html=1;dashed=1;edgeStyle=orthogonalEdgeStyle;curved=1;" parent="1" source="_6BsK9LfEwQleu0YL2EX-12" target="_6BsK9LfEwQleu0YL2EX-15" edge="1">
          <mxGeometry x="0.0738" y="10" relative="1" as="geometry">
            <mxPoint x="380" y="560" as="sourcePoint" />
            <mxPoint x="380" y="500" as="targetPoint" />
            <Array as="points">
              <mxPoint x="320" y="590" />
            </Array>
            <mxPoint as="offset" />
          </mxGeometry>
        </mxCell>
        <mxCell id="_6BsK9LfEwQleu0YL2EX-27" value="CTI Provider" style="shape=umlActor;verticalLabelPosition=bottom;verticalAlign=top;html=1;outlineConnect=0;" parent="1" vertex="1">
          <mxGeometry x="790" y="430" width="30" height="60" as="geometry" />
        </mxCell>
        <mxCell id="_6BsK9LfEwQleu0YL2EX-28" value="" style="edgeStyle=none;orthogonalLoop=1;jettySize=auto;html=1;rounded=0;endArrow=none;endFill=0;" parent="1" source="_6BsK9LfEwQleu0YL2EX-27" target="_6BsK9LfEwQleu0YL2EX-15" edge="1">
          <mxGeometry width="80" relative="1" as="geometry">
            <mxPoint x="730" y="460" as="sourcePoint" />
            <mxPoint x="810" y="460" as="targetPoint" />
            <Array as="points" />
          </mxGeometry>
        </mxCell>
        <mxCell id="_6BsK9LfEwQleu0YL2EX-29" value="&amp;lt;&amp;lt;extend&amp;gt;&amp;gt;" style="edgeStyle=orthogonalEdgeStyle;rounded=0;orthogonalLoop=1;jettySize=auto;html=1;dashed=1;" parent="1" source="_6BsK9LfEwQleu0YL2EX-7" target="_6BsK9LfEwQleu0YL2EX-15" edge="1">
          <mxGeometry relative="1" as="geometry">
            <mxPoint x="520" y="380" as="sourcePoint" />
            <mxPoint x="640" y="440" as="targetPoint" />
            <Array as="points">
              <mxPoint x="530" y="420" />
              <mxPoint x="530" y="420" />
            </Array>
          </mxGeometry>
        </mxCell>
        <mxCell id="_6BsK9LfEwQleu0YL2EX-30" value="" style="edgeStyle=none;orthogonalLoop=1;jettySize=auto;html=1;rounded=0;endArrow=none;endFill=0;" parent="1" source="_6BsK9LfEwQleu0YL2EX-20" target="_6BsK9LfEwQleu0YL2EX-12" edge="1">
          <mxGeometry width="80" relative="1" as="geometry">
            <mxPoint x="170" y="380" as="sourcePoint" />
            <mxPoint x="250" y="380" as="targetPoint" />
            <Array as="points" />
          </mxGeometry>
        </mxCell>
        <mxCell id="_6BsK9LfEwQleu0YL2EX-31" value="Upload Payment &lt;br&gt;Receipt" style="ellipse;whiteSpace=wrap;html=1;" parent="1" vertex="1">
          <mxGeometry x="150" y="240.5" width="128" height="59" as="geometry" />
        </mxCell>
        <mxCell id="_6BsK9LfEwQleu0YL2EX-33" value="&amp;lt;&amp;lt;extend&amp;gt;&amp;gt;" style="rounded=0;orthogonalLoop=1;jettySize=auto;html=1;dashed=1;edgeStyle=orthogonalEdgeStyle;" parent="1" source="_6BsK9LfEwQleu0YL2EX-31" target="_6BsK9LfEwQleu0YL2EX-16" edge="1">
          <mxGeometry x="-0.1111" y="10" relative="1" as="geometry">
            <mxPoint x="700" y="250" as="sourcePoint" />
            <mxPoint x="700" y="190" as="targetPoint" />
            <mxPoint as="offset" />
          </mxGeometry>
        </mxCell>
        <mxCell id="_6BsK9LfEwQleu0YL2EX-34" value="&amp;lt;&amp;lt;include&amp;gt;&amp;gt;" style="edgeStyle=none;orthogonalLoop=1;jettySize=auto;html=1;rounded=0;dashed=1;" parent="1" source="_6BsK9LfEwQleu0YL2EX-16" target="_6BsK9LfEwQleu0YL2EX-6" edge="1">
          <mxGeometry width="80" relative="1" as="geometry">
            <mxPoint x="200" y="310" as="sourcePoint" />
            <mxPoint x="280" y="310" as="targetPoint" />
            <Array as="points" />
          </mxGeometry>
        </mxCell>
        <mxCell id="_6BsK9LfEwQleu0YL2EX-35" value="Contract Negotiation" style="ellipse;whiteSpace=wrap;html=1;" parent="1" vertex="1">
          <mxGeometry x="442" y="340" width="139" height="62" as="geometry" />
        </mxCell>
        <mxCell id="_6BsK9LfEwQleu0YL2EX-36" value="" style="edgeStyle=none;orthogonalLoop=1;jettySize=auto;html=1;rounded=0;dashed=1;" parent="1" source="_6BsK9LfEwQleu0YL2EX-16" target="_6BsK9LfEwQleu0YL2EX-35" edge="1">
          <mxGeometry width="80" relative="1" as="geometry">
            <mxPoint x="610" y="320" as="sourcePoint" />
            <mxPoint x="690" y="320" as="targetPoint" />
            <Array as="points" />
          </mxGeometry>
        </mxCell>
        <mxCell id="_6BsK9LfEwQleu0YL2EX-37" value="&amp;lt;&amp;lt;include&amp;gt;&amp;gt;" style="edgeLabel;html=1;align=center;verticalAlign=middle;resizable=0;points=[];" parent="_6BsK9LfEwQleu0YL2EX-36" vertex="1" connectable="0">
          <mxGeometry x="-0.1535" y="-4" relative="1" as="geometry">
            <mxPoint x="1" as="offset" />
          </mxGeometry>
        </mxCell>
        <mxCell id="_6BsK9LfEwQleu0YL2EX-38" value="" style="edgeStyle=none;orthogonalLoop=1;jettySize=auto;html=1;rounded=0;endArrow=none;endFill=0;" parent="1" source="_6BsK9LfEwQleu0YL2EX-35" target="_6BsK9LfEwQleu0YL2EX-27" edge="1">
          <mxGeometry width="80" relative="1" as="geometry">
            <mxPoint x="630" y="320" as="sourcePoint" />
            <mxPoint x="710" y="320" as="targetPoint" />
            <Array as="points" />
          </mxGeometry>
        </mxCell>
        <mxCell id="_6BsK9LfEwQleu0YL2EX-41" value="Participant" style="shape=umlActor;verticalLabelPosition=bottom;verticalAlign=top;html=1;outlineConnect=0;" parent="1" vertex="1">
          <mxGeometry x="50" y="720" width="30" height="60" as="geometry" />
        </mxCell>
        <mxCell id="_6BsK9LfEwQleu0YL2EX-42" value="Use App" style="ellipse;whiteSpace=wrap;html=1;" parent="1" vertex="1">
          <mxGeometry x="250" y="750" width="103" height="74" as="geometry" />
        </mxCell>
        <mxCell id="_6BsK9LfEwQleu0YL2EX-43" value="Publish App" style="ellipse;whiteSpace=wrap;html=1;" parent="1" vertex="1">
          <mxGeometry x="466" y="750" width="103" height="74" as="geometry" />
        </mxCell>
        <mxCell id="_6BsK9LfEwQleu0YL2EX-44" value="App Provider" style="shape=umlActor;verticalLabelPosition=bottom;verticalAlign=top;html=1;outlineConnect=0;" parent="1" vertex="1">
          <mxGeometry x="730" y="730" width="30" height="60" as="geometry" />
        </mxCell>
        <mxCell id="_6BsK9LfEwQleu0YL2EX-45" value="" style="edgeStyle=none;orthogonalLoop=1;jettySize=auto;html=1;rounded=0;endArrow=none;endFill=0;" parent="1" source="_6BsK9LfEwQleu0YL2EX-41" target="_6BsK9LfEwQleu0YL2EX-42" edge="1">
          <mxGeometry width="80" relative="1" as="geometry">
            <mxPoint x="80" y="601" as="sourcePoint" />
            <mxPoint x="246" y="719" as="targetPoint" />
            <Array as="points" />
          </mxGeometry>
        </mxCell>
        <mxCell id="_6BsK9LfEwQleu0YL2EX-46" value="" style="edgeStyle=none;orthogonalLoop=1;jettySize=auto;html=1;rounded=0;endArrow=none;endFill=0;" parent="1" source="_6BsK9LfEwQleu0YL2EX-43" target="_6BsK9LfEwQleu0YL2EX-44" edge="1">
          <mxGeometry width="80" relative="1" as="geometry">
            <mxPoint x="670" y="720" as="sourcePoint" />
            <mxPoint x="750" y="720" as="targetPoint" />
            <Array as="points" />
          </mxGeometry>
        </mxCell>
        <mxCell id="_6BsK9LfEwQleu0YL2EX-48" value="Feedback and Review" style="ellipse;whiteSpace=wrap;html=1;" parent="1" vertex="1">
          <mxGeometry x="220" y="630" width="123" height="60" as="geometry" />
        </mxCell>
        <mxCell id="_6BsK9LfEwQleu0YL2EX-49" value="" style="edgeStyle=none;orthogonalLoop=1;jettySize=auto;html=1;rounded=0;endArrow=none;endFill=0;" parent="1" source="_6BsK9LfEwQleu0YL2EX-20" target="_6BsK9LfEwQleu0YL2EX-48" edge="1">
          <mxGeometry width="80" relative="1" as="geometry">
            <mxPoint x="70" y="451" as="sourcePoint" />
            <mxPoint x="236" y="569" as="targetPoint" />
            <Array as="points" />
          </mxGeometry>
        </mxCell>
        <mxCell id="_6BsK9LfEwQleu0YL2EX-50" value="Statistics and Tracking" style="ellipse;whiteSpace=wrap;html=1;" parent="1" vertex="1">
          <mxGeometry x="453.5" y="652" width="128" height="68" as="geometry" />
        </mxCell>
        <mxCell id="_6BsK9LfEwQleu0YL2EX-51" value="" style="edgeStyle=none;orthogonalLoop=1;jettySize=auto;html=1;rounded=0;endArrow=none;endFill=0;" parent="1" source="_6BsK9LfEwQleu0YL2EX-27" target="_6BsK9LfEwQleu0YL2EX-50" edge="1">
          <mxGeometry width="80" relative="1" as="geometry">
            <mxPoint x="750" y="431" as="sourcePoint" />
            <mxPoint x="586" y="655" as="targetPoint" />
            <Array as="points" />
          </mxGeometry>
        </mxCell>
      </root>
    </mxGraphModel>
  </diagram>
</mxfile>
